<svg xmlns="http://www.w3.org/2000/svg" width="26" height="26" viewBox="0 0 500 500" version="1.1"><path d="M 142.750 63.143 L 36 125.235 36 250.001 L 36 374.766 143.001 436.968 L 250.003 499.171 256.251 495.656 C 259.688 493.723, 307.725 465.816, 363 433.640 L 463.500 375.138 463.500 249.997 L 463.500 124.857 357.062 62.928 C 298.522 28.868, 250.372 1.012, 250.062 1.026 C 249.753 1.040, 201.463 28.993, 142.750 63.143 M 154.500 82.449 L 59.500 137.766 59.253 249.633 L 59.006 361.500 150.147 414.500 C 200.274 443.650, 243.248 468.521, 245.644 469.769 L 250 472.038 254.373 469.769 C 256.778 468.521, 299.754 443.650, 349.875 414.500 L 441.005 361.500 440.752 249.618 L 440.500 137.736 346 82.768 C 294.025 52.535, 251.050 27.649, 250.500 27.466 C 249.950 27.282, 206.750 52.025, 154.500 82.449 M 145.787 201.308 L 118.073 217.500 118.037 250.144 L 118 282.787 145.194 298.644 C 160.151 307.365, 172.912 314.633, 173.551 314.796 C 174.191 314.958, 187.153 307.831, 202.357 298.958 L 230 282.824 230 266.412 L 230 250 254.500 250 L 279 250 279 275 L 279 300 289.500 300 L 300 300 300 275 L 300 250 315 250 L 330 250 330 275 L 330 300 340.500 300 L 351 300 351 275 L 351 250 383.500 250 L 416 250 416 241.500 L 416 233 323 233 L 230 233 229.976 225.250 L 229.953 217.500 202.415 201.500 C 187.268 192.700, 174.567 185.414, 174.188 185.308 C 173.810 185.203, 161.029 192.403, 145.787 201.308 M 151.750 211.768 L 130 224.453 130 250.001 L 130 275.549 151.992 288.314 C 171.730 299.772, 174.214 300.958, 176.242 299.898 C 177.484 299.248, 187.395 293.564, 198.266 287.268 L 218.033 275.820 217.766 249.835 L 217.500 223.851 196.032 211.425 C 184.225 204.591, 174.325 199.019, 174.032 199.042 C 173.740 199.065, 163.713 204.792, 151.750 211.768" stroke="none" fill="#ffffff" fill-rule="evenodd"/></svg>